<svg xmlns="http://www.w3.org/2000/svg" width="222" height="222" viewBox="0 0 222 222"><defs><mask id="f060b" width="2.01" height="2.01" x="-1" y="-1"><path fill="#fff" d="M0 0h222v222H0z"/><path d="M111 1c60.751 0 110 49.249 110 110s-49.249 110-110 110S1 171.75 1 111 50.249 1 111 1z"/></mask><filter id="f060a" width="242.5" height="242.9" x="-10" y="-10" filterUnits="userSpaceOnUse"><feOffset dx=".5" dy=".9" in="SourceGraphic" result="FeOffset1023Out"/><feGaussianBlur in="FeOffset1023Out" result="FeGaussianBlur1024Out" stdDeviation="0 0"/></filter></defs><g><g><g filter="url(#f060a)"><path fill="none" stroke="#9b9b9b" stroke-opacity=".3" stroke-width="2" d="M111 1c60.751 0 110 49.249 110 110s-49.249 110-110 110S1 171.75 1 111 50.249 1 111 1z" mask="url(&quot;#f060b&quot;)"/><path fill="#9b9b9b" fill-opacity=".3" d="M111 1c60.751 0 110 49.249 110 110s-49.249 110-110 110S1 171.75 1 111 50.249 1 111 1z"/></g><path fill="#fff" d="M111 1c60.751 0 110 49.249 110 110s-49.249 110-110 110S1 171.75 1 111 50.249 1 111 1z"/></g></g></svg>